<svg width="378" height="74" viewBox="0 0 378 74" fill="none" xmlns="http://www.w3.org/2000/svg">
<path d="M58.7578 54.2256H60.1172L60.5859 56.2178H63.9141V57.9756H60.9258V65.042C60.9258 66.1904 61.4219 66.7646 62.4141 66.7646H63.9141V68.5225H61.8516C59.7891 68.5225 58.7578 67.417 58.7578 65.2061V54.2256ZM71.7539 56.2178C75.2539 56.2178 77.0039 57.9482 77.0039 61.4092C77.0039 61.9014 76.9688 62.4287 76.8984 62.9912H68.2617C68.2617 65.5068 69.7305 66.7646 72.668 66.7646C74.0664 66.7646 75.3086 66.6084 76.3945 66.2959V68.0537C75.3086 68.3662 73.9883 68.5225 72.4336 68.5225C68.207 68.5225 66.0938 66.4248 66.0938 62.2295C66.0938 58.2217 67.9805 56.2178 71.7539 56.2178ZM68.2617 61.1865H74.918C74.8711 59.0303 73.8164 57.9521 71.7539 57.9521C69.5664 57.9521 68.4023 59.0303 68.2617 61.1865ZM79.8047 67.9365V66.0615C81.25 66.5303 82.7109 66.7646 84.1875 66.7646C86.1484 66.7646 87.1289 66.1787 87.1289 65.0068C87.1289 63.9131 86.4453 63.3662 85.0781 63.3662H83.3203C80.6641 63.3662 79.3359 62.1553 79.3359 59.7334C79.3359 57.3896 81.043 56.2178 84.457 56.2178C85.9258 56.2178 87.3828 56.4131 88.8281 56.8037V58.6787C87.3828 58.21 85.9258 57.9756 84.457 57.9756C82.4102 57.9756 81.3867 58.5615 81.3867 59.7334C81.3867 60.8271 82.0312 61.374 83.3203 61.374H85.0781C87.8906 61.374 89.2969 62.585 89.2969 65.0068C89.2969 67.3506 87.5938 68.5225 84.1875 68.5225C82.7109 68.5225 81.25 68.3271 79.8047 67.9365ZM92.2266 54.2256H93.5859L94.0547 56.2178H97.3828V57.9756H94.3945V65.042C94.3945 66.1904 94.8906 66.7646 95.8828 66.7646H97.3828V68.5225H95.3203C93.2578 68.5225 92.2266 67.417 92.2266 65.2061V54.2256Z" fill="#016C3E"/>
<path d="M66.2266 47.4639H59.5234V20.5811H49.4219V13.8545H76.3047V20.5811H66.2266V47.4639ZM86.5938 20.5811V34.0342H93.3203C94.2422 34.0342 95.1094 33.8623 95.9219 33.5186C96.7344 33.1592 97.4453 32.6748 98.0547 32.0654C98.6641 31.4561 99.1406 30.7451 99.4844 29.9326C99.8438 29.1045 100.023 28.2295 100.023 27.3076C100.023 26.3857 99.8438 25.5186 99.4844 24.7061C99.1406 23.8779 98.6641 23.1592 98.0547 22.5498C97.4453 21.9404 96.7344 21.4639 95.9219 21.1201C95.1094 20.7607 94.2422 20.5811 93.3203 20.5811H86.5938ZM86.5938 47.4639H79.8672V13.8545H93.3203C94.5547 13.8545 95.7422 14.0186 96.8828 14.3467C98.0234 14.6592 99.0859 15.1123 100.07 15.7061C101.07 16.2842 101.977 16.9873 102.789 17.8154C103.617 18.6279 104.32 19.5342 104.898 20.5342C105.492 21.5342 105.945 22.6045 106.258 23.7451C106.586 24.8857 106.75 26.0732 106.75 27.3076C106.75 28.4639 106.602 29.5889 106.305 30.6826C106.023 31.7764 105.609 32.8154 105.062 33.7998C104.531 34.7842 103.875 35.6904 103.094 36.5186C102.312 37.3467 101.438 38.0654 100.469 38.6748L104.195 47.4639H97.0469L94.1172 40.6904L86.5938 40.7373V47.4639ZM130.961 34.0342V27.3076C130.961 26.3857 130.781 25.5186 130.422 24.7061C130.078 23.8779 129.602 23.1592 128.992 22.5498C128.383 21.9404 127.664 21.4639 126.836 21.1201C126.023 20.7607 125.156 20.5811 124.234 20.5811C123.312 20.5811 122.438 20.7607 121.609 21.1201C120.797 21.4639 120.086 21.9404 119.477 22.5498C118.867 23.1592 118.383 23.8779 118.023 24.7061C117.68 25.5186 117.508 26.3857 117.508 27.3076V34.0342H130.961ZM137.688 47.4639H130.961V40.7373H117.508V47.4639H110.805V27.3076C110.805 25.4482 111.156 23.7061 111.859 22.0811C112.562 20.4404 113.516 19.0107 114.719 17.792C115.938 16.5732 117.359 15.6123 118.984 14.9092C120.625 14.2061 122.375 13.8545 124.234 13.8545C126.094 13.8545 127.836 14.2061 129.461 14.9092C131.102 15.6123 132.531 16.5732 133.75 17.792C134.969 19.0107 135.93 20.4404 136.633 22.0811C137.336 23.7061 137.688 25.4482 137.688 27.3076V47.4639ZM170.453 30.6592C170.453 32.2061 170.25 33.6982 169.844 35.1357C169.453 36.5576 168.891 37.8936 168.156 39.1436C167.422 40.3779 166.547 41.5107 165.531 42.542C164.516 43.5576 163.383 44.4326 162.133 45.167C160.883 45.9014 159.539 46.4717 158.102 46.8779C156.68 47.2686 155.195 47.4639 153.648 47.4639H143.523V13.8545H153.648C155.195 13.8545 156.68 14.0576 158.102 14.4639C159.539 14.8545 160.883 15.417 162.133 16.1514C163.383 16.8857 164.516 17.7686 165.531 18.7998C166.547 19.8154 167.422 20.9482 168.156 22.1982C168.891 23.4326 169.453 24.7686 169.844 26.2061C170.25 27.6279 170.453 29.1123 170.453 30.6592ZM163.727 30.6592C163.727 29.2686 163.461 27.9639 162.93 26.7451C162.414 25.5264 161.695 24.4639 160.773 23.5576C159.867 22.6357 158.797 21.9092 157.562 21.3779C156.344 20.8467 155.039 20.5811 153.648 20.5811H150.297V40.7373H153.648C155.039 40.7373 156.344 40.4795 157.562 39.9639C158.797 39.4326 159.867 38.7139 160.773 37.8076C161.695 36.8857 162.414 35.8154 162.93 34.5967C163.461 33.3623 163.727 32.0498 163.727 30.6592ZM197.969 47.4639H174.93V13.8545H197.969V20.5811H181.656V27.3076H192.695V34.0342H181.656V40.7373H197.969V47.4639Z" fill="#016C3E"/>
<path d="M214.164 23.9326C214.164 22.542 214.43 21.2373 214.961 20.0186C215.492 18.7998 216.211 17.7373 217.117 16.8311C218.039 15.9092 219.109 15.1826 220.328 14.6514C221.547 14.1201 222.852 13.8545 224.242 13.8545H239.664V20.5811H224.242C223.773 20.5811 223.336 20.667 222.93 20.8389C222.523 21.0107 222.164 21.2529 221.852 21.5654C221.555 21.8623 221.32 22.2139 221.148 22.6201C220.977 23.0264 220.891 23.4639 220.891 23.9326C220.891 24.4014 220.977 24.8467 221.148 25.2686C221.32 25.6748 221.555 26.0342 221.852 26.3467C222.164 26.6436 222.523 26.8779 222.93 27.0498C223.336 27.2217 223.773 27.3076 224.242 27.3076H230.969C232.359 27.3076 233.664 27.5732 234.883 28.1045C236.117 28.6201 237.188 29.3389 238.094 30.2607C239.016 31.167 239.734 32.2373 240.25 33.4717C240.781 34.6904 241.047 35.9951 241.047 37.3857C241.047 38.7764 240.781 40.0811 240.25 41.2998C239.734 42.5186 239.016 43.5889 238.094 44.5107C237.188 45.417 236.117 46.1357 234.883 46.667C233.664 47.1982 232.359 47.4639 230.969 47.4639H216.039V40.7373H230.969C231.438 40.7373 231.875 40.6514 232.281 40.4795C232.688 40.3076 233.039 40.0732 233.336 39.7764C233.648 39.4639 233.891 39.1045 234.062 38.6982C234.234 38.292 234.32 37.8545 234.32 37.3857C234.32 36.917 234.234 36.4795 234.062 36.0732C233.891 35.667 233.648 35.3154 233.336 35.0186C233.039 34.7061 232.688 34.4639 232.281 34.292C231.875 34.1201 231.438 34.0342 230.969 34.0342H224.242C222.852 34.0342 221.547 33.7686 220.328 33.2373C219.109 32.7061 218.039 31.9873 217.117 31.0811C216.211 30.1592 215.492 29.0889 214.961 27.8701C214.43 26.6357 214.164 25.3232 214.164 23.9326ZM272.359 47.4639H265.164L252.203 25.3389V47.4639H245.477V13.8545H252.672L265.633 36.0029V13.8545H272.359V47.4639ZM298.398 34.0342V27.3076C298.398 26.3857 298.219 25.5186 297.859 24.7061C297.516 23.8779 297.039 23.1592 296.43 22.5498C295.82 21.9404 295.102 21.4639 294.273 21.1201C293.461 20.7607 292.594 20.5811 291.672 20.5811C290.75 20.5811 289.875 20.7607 289.047 21.1201C288.234 21.4639 287.523 21.9404 286.914 22.5498C286.305 23.1592 285.82 23.8779 285.461 24.7061C285.117 25.5186 284.945 26.3857 284.945 27.3076V34.0342H298.398ZM305.125 47.4639H298.398V40.7373H284.945V47.4639H278.242V27.3076C278.242 25.4482 278.594 23.7061 279.297 22.0811C280 20.4404 280.953 19.0107 282.156 17.792C283.375 16.5732 284.797 15.6123 286.422 14.9092C288.062 14.2061 289.812 13.8545 291.672 13.8545C293.531 13.8545 295.273 14.2061 296.898 14.9092C298.539 15.6123 299.969 16.5732 301.188 17.792C302.406 19.0107 303.367 20.4404 304.07 22.0811C304.773 23.7061 305.125 25.4482 305.125 27.3076V47.4639ZM317.688 47.4639H310.961V13.8545H317.688V30.6592L330.203 13.8545H337.844L327.227 28.0342L337.844 47.4639H330.203L322.82 33.8701L317.688 40.7373V47.4639ZM364 47.4639H340.961V13.8545H364V20.5811H347.688V27.3076H358.727V34.0342H347.688V40.7373H364V47.4639Z" fill="#EF0000"/>
<path d="M42.9021 20.9934C40.6525 19.2632 40.5107 18.6803 40.0162 17.8143C39.8311 17.3266 39.5217 16.619 39.0659 16.1802C38.4554 15.6881 37.6257 15.3169 36.8651 15.1131C36.4903 15.0126 35.7187 14.8648 35.3945 14.6663L35.4774 14.5328L35.6045 14.499C36.9434 14.7527 38.7418 15.2902 39.554 16.4455C39.8698 16.8949 40.0604 17.4298 40.3091 17.9158C40.8275 18.9286 43.1876 20.7629 44.0587 21.506" fill="black"/>
<path d="M38.3337 14.7128C39.6984 15.3127 40.6478 16.1448 41.2307 16.3834C42.8108 17.0304 45.0945 17.0865 46.8211 17.2271C47.3948 17.2734 47.9915 17.2983 48.5541 17.4176C47.2318 17.6018 45.9684 17.7264 44.6369 17.8172C44.5687 17.8741 44.5439 17.8884 44.4628 17.9177L44.4803 17.9355C43.7335 18.142 42.367 17.9355 41.6184 17.746C41.9011 18.1126 42.39 18.6618 42.3882 19.1397C43.1847 20.1855 44.6636 21.5258 45.7179 22.3099C44.5411 21.8169 43.5208 21.2481 42.4803 20.5201C41.6091 19.777 40.8218 18.9288 40.3034 17.916C40.0548 17.43 39.8642 16.8951 39.5483 16.4457C38.7371 15.2904 37.0142 14.8392 35.6753 14.5856L35.5859 14.5339C35.6872 14.2732 35.7563 13.9973 35.8336 13.7294" fill="#E50707"/>
<path d="M44.4792 17.9353C43.7324 18.1418 42.5003 18.0145 41.7517 17.824C42.0343 18.1907 42.5058 18.9784 42.6909 19.5142C42.1043 18.8369 41.3133 17.6923 40.7461 16.9963C42.0693 17.6754 43.8558 17.6603 45.3079 17.768" fill="black"/>
<path d="M22.1758 40.0023C23.2753 40.2382 24.3619 40.5488 25.4411 40.8585C29.9863 42.1615 34.9755 44.1542 37.6293 48.1815C38.4728 49.4613 39.2435 51.1621 39.4793 52.6805C39.5631 53.2234 39.5612 53.7689 39.5576 54.3163C39.4259 54.0386 39.2813 53.7769 39.1202 53.5135C38.9912 52.2773 37.994 50.2979 37.2766 49.2628C37.063 48.9576 36.8356 48.6621 36.5934 48.3782C36.3512 48.0934 36.0952 47.821 35.8263 47.5602C33.0481 44.8573 29.2976 43.0399 25.5 42.1107C24.4272 41.8482 23.3047 41.623 22.1951 41.6221C22.1951 41.0828 22.2016 40.5434 22.1758 40.0041V40.0023Z" fill="black"/>
<path d="M33.418 23.2586L33.4705 23.2106L33.7504 23.3254C34.6261 23.8158 35.5341 24.2412 36.3904 24.7672C38.6124 26.1298 40.7764 28.0451 42.2811 30.1366C42.8603 30.9412 43.3327 31.7982 43.8262 32.6518C44.1347 33.3495 44.4423 34.0437 44.6495 34.778C45.1679 36.6149 45.1467 38.8079 44.7019 40.6627C44.5942 40.4705 44.724 39.1764 44.6854 38.832C44.4828 37.0252 43.7139 35.328 42.8741 33.7251C42.6512 33.2997 42.4293 32.8164 42.1291 32.4364C42.0877 32.3198 42.0297 32.2076 41.9772 32.0955C41.7387 31.557 41.3059 31.0248 40.9422 30.5576C38.8933 27.9205 36.3554 26.3327 33.4309 24.7432C33.4263 24.356 33.4253 23.9689 33.4272 23.5817" fill="black"/>
<path d="M13.7241 70.9985C13.6992 70.9023 13.6762 70.8062 13.655 70.7101C13.6338 70.614 13.6145 70.517 13.597 70.4191C13.5795 70.3221 13.5639 70.2241 13.55 70.1262C13.5362 70.0283 13.5243 69.9304 13.5141 69.8325C13.504 69.7346 13.4957 69.6359 13.4893 69.5371C13.4828 69.4383 13.4782 69.3404 13.4755 69.2416C13.4727 69.1428 13.4718 69.044 13.4736 68.9452C13.4745 68.8464 13.4773 68.7476 13.4828 68.6488C13.4874 68.55 13.4948 68.4521 13.5031 68.3534C13.5114 68.2546 13.5224 68.1567 13.5344 68.0588C13.5464 67.9609 13.5611 67.863 13.5767 67.766C13.5924 67.6681 13.6108 67.571 13.6302 67.474C13.6495 67.377 13.6716 67.2809 13.6946 67.1848C13.7176 67.0887 13.7434 66.9934 13.7701 66.8982C13.7968 66.803 13.8263 66.7086 13.8567 66.6143C13.8871 66.5199 13.9193 66.4265 13.9543 66.3339C15.2481 62.9012 18.7436 61.2484 22.0853 60.095C23.8211 59.496 25.5882 59.0012 27.1702 58.0551C28.0431 57.5336 28.7513 56.8385 29.5064 56.179C30.6703 55.1626 32.011 54.1498 33.4402 53.5196C34.4163 53.0898 35.548 52.8112 36.5904 53.1983C37.7838 53.6424 38.4606 54.6855 38.9579 55.7642C38.7654 56.2199 38.5278 56.6498 38.281 57.0788C38.27 57.0529 38.258 57.028 38.246 57.0022C38.1576 56.8002 38.1162 56.5821 38.0361 56.3774C37.7589 55.6681 37.293 54.908 36.5379 54.601C35.7174 54.2672 34.827 54.4977 34.0489 54.8217C32.7127 55.3788 31.5064 56.179 30.4088 57.0957C29.4014 57.9376 28.4676 58.8214 27.335 59.5165C23.7428 61.7184 19.5769 62.1634 16.4433 65.184C15.6984 65.9023 15.0409 66.7611 14.6541 67.7134C14.4663 68.1745 14.2434 68.8633 14.3042 69.3617C14.0519 69.8851 13.8898 70.4466 13.7232 71.0002L13.7241 70.9985Z" fill="black"/>
<path d="M14.307 69.3599C14.2463 68.8615 14.47 68.1726 14.657 67.7116C15.0437 66.7593 15.7012 65.9005 16.4462 65.1822C19.5798 62.1624 23.7466 61.7174 27.3378 59.5147C28.4705 58.8205 29.4042 57.9358 30.4116 57.0938C31.5092 56.1771 32.7155 55.377 34.0517 54.8199C34.8298 54.495 35.7202 54.2654 36.5407 54.5992C37.2958 54.9062 37.7617 55.6663 38.0389 56.3756C38.119 56.5803 38.1605 56.7993 38.2489 57.0004C38.2599 57.0262 38.2719 57.0511 38.2839 57.0769C37.8078 57.7738 37.2424 58.4529 36.595 59.0082C34.2837 60.993 30.8315 62.0921 27.8425 62.6822C23.1858 63.6016 17.8495 64.0581 14.9691 68.2661C14.7279 68.6185 14.5161 68.9879 14.308 69.359L14.307 69.3599Z" fill="#00CA73"/>
<path d="M38.3298 11.5204C38.2515 11.7883 38.1834 12.0642 38.0821 12.3249C38.0655 12.3463 38.0489 12.3668 38.0333 12.3872C37.7008 12.8207 37.5185 13.3485 37.1631 13.7819C36.2385 14.9095 33.9954 16.4314 32.6325 16.9183C32.2329 17.0616 31.7716 17.1141 31.3498 17.1826C29.0514 17.5528 26.1922 17.3401 23.8367 17.2761C22.6276 17.2431 21.4139 17.2992 20.2049 17.2725C19.1514 17.2485 18.1275 17.1034 17.0713 17.2253C16.2443 17.3206 15.3963 17.5733 14.6835 17.9961C14.1743 18.2978 13.1153 19.4379 12.6973 19.4583L12.6678 19.4681C12.0048 19.3044 11.339 19.1433 10.6981 18.9101C9.06087 18.3147 7.71184 17.4834 6.57553 16.1867C6.32138 15.8965 6.04512 15.5948 5.88213 15.2468C5.79281 15.1178 5.71823 14.9763 5.64824 14.8365C5.60312 14.7475 5.55984 14.6577 5.51932 14.566C5.47881 14.4752 5.44013 14.3826 5.40422 14.2901C5.36831 14.1975 5.33424 14.1032 5.30385 14.0088C5.27254 13.9145 5.24399 13.8193 5.21821 13.7231C5.19243 13.627 5.16848 13.5309 5.14731 13.4339C5.12613 13.3369 5.10771 13.239 5.09113 13.1411C5.07548 13.0432 5.06167 12.9444 5.05062 12.8456C5.03957 12.7468 5.03128 12.648 5.02575 12.5492C5.02023 12.4504 5.01655 12.3508 5.01562 12.252C5.01562 12.1532 5.01655 12.0535 5.02115 11.9547C5.02575 11.8559 5.03312 11.7562 5.04233 11.6574C5.05154 11.5587 5.06443 11.4599 5.07916 11.362C5.0939 11.2641 5.11139 11.1662 5.13073 11.0683C5.15099 10.9712 5.17309 10.8742 5.19795 10.7781C5.22281 10.682 5.25044 10.5859 5.27991 10.4915C5.30937 10.3963 5.3416 10.3029 5.37659 10.2094C5.68047 9.60865 6.13537 9.05506 6.58566 8.55043C8.95037 5.89732 12.0333 4.07014 15.4377 2.93627C15.9285 2.77251 16.6725 2.44499 17.1772 2.41028C17.5897 2.10768 19.0658 1.92789 19.5944 1.89852C19.7841 1.88784 19.9342 1.87716 20.0842 2.0071C23.8551 0.950667 29.9455 2.01511 33.3821 3.83874C35.559 4.99397 37.3684 6.64938 38.0618 9.01679C38.0802 9.07909 38.095 9.1405 38.1097 9.20369L38.1355 8.97229L38.1741 8.97051C38.5406 9.67985 38.4679 10.455 38.4099 11.2267" fill="#00CA73"/>
<path d="M5.37659 10.2084C5.68047 9.60767 6.13537 9.05409 6.58566 8.54945C8.95037 5.89635 12.0333 4.06916 15.4377 2.9353C15.9285 2.77153 16.6725 2.44401 17.1772 2.4093C16.1873 3.26193 15.4699 4.20978 15.097 5.45134C14.7636 7.0489 14.7857 8.61353 15.7434 10.0224C16.749 11.5034 18.563 12.2439 20.2997 12.5847C21.9001 12.898 23.6083 13.0004 25.1958 12.5767C25.8082 12.413 26.3994 12.1291 27.0394 12.0961C28.1545 12.0392 29.2926 12.0846 30.4096 12.0863L36.5093 12.0819C36.3822 12.3507 36.2947 12.5963 35.9872 12.7102C35.6566 12.8331 35.1437 12.7672 34.7901 12.7663C33.1436 12.7271 31.4888 12.7565 29.8415 12.7556C28.8543 12.7556 27.8092 12.6898 26.8266 12.7716C26.2364 12.8206 25.6277 13.1766 25.0338 13.303C22.9352 13.7471 20.3273 13.6163 18.3328 12.8242C16.7011 12.1762 15.5813 11.1919 14.899 9.60678C14.2968 8.20858 14.3456 6.69201 14.9395 5.30004C13.1457 5.66049 10.3491 7.4236 8.97984 8.62154C8.76068 8.81379 8.54705 9.01226 8.33986 9.21785C8.13267 9.42255 7.93285 9.63348 7.73947 9.85064C7.54609 10.0678 7.35916 10.2894 7.1796 10.5181C7.00003 10.746 6.82784 10.9792 6.66301 11.2168C6.03407 12.1415 5.59207 13.1437 5.74217 14.2677C5.78084 14.5588 5.92081 14.9655 5.88214 15.2485C5.79281 15.1195 5.71823 14.978 5.64824 14.8382C5.60312 14.7492 5.55984 14.6593 5.51932 14.5677C5.47881 14.4769 5.44013 14.3843 5.40422 14.2918C5.36831 14.1992 5.33424 14.1049 5.30385 14.0105C5.27254 13.9162 5.24399 13.821 5.21821 13.7248C5.19243 13.6287 5.16848 13.5326 5.14731 13.4356C5.12613 13.3386 5.10771 13.2407 5.09113 13.1428C5.07548 13.0449 5.06167 12.9461 5.05062 12.8473C5.03957 12.7485 5.03128 12.6497 5.02575 12.5509C5.02023 12.4521 5.01655 12.3524 5.01562 12.2537C5.01562 12.1549 5.01655 12.0552 5.02115 11.9564C5.02575 11.8576 5.03312 11.7579 5.04233 11.6591C5.05154 11.5603 5.06443 11.4616 5.07916 11.3637C5.0939 11.2658 5.11139 11.1679 5.13073 11.07C5.15099 10.9729 5.17309 10.8759 5.19795 10.7798C5.22281 10.6837 5.25044 10.5876 5.27991 10.4932C5.30937 10.398 5.3416 10.3045 5.37659 10.2111V10.2084Z" fill="black"/>
<path d="M20.0843 2.00515C23.8551 0.948714 29.9456 2.01316 33.3821 3.83678C35.559 4.99201 37.3685 6.64742 38.0619 9.01484C38.0803 9.07714 38.095 9.13855 38.1097 9.20174C38.1714 9.62182 38.339 10.268 38.1668 10.6667C38.0619 10.7228 38.0287 10.705 37.9118 10.6996L29.7789 10.7067C29.1647 10.7067 28.5487 10.7139 27.9345 10.7023C27.474 10.6943 27.0035 10.656 26.5449 10.6854C26.1637 10.7094 25.7539 10.9417 25.3957 11.0699C24.6977 11.3191 24.0025 11.449 23.2566 11.465C21.1644 11.5095 18.7436 11.0414 17.1938 9.59334C16.8687 9.27739 16.6164 8.94275 16.4461 8.52534C16.005 7.44576 16.1873 6.11431 16.6707 5.07656C16.7122 4.98934 16.7564 4.90212 16.8024 4.81668C16.8485 4.73124 16.8963 4.64669 16.947 4.56392C16.9976 4.48115 17.0492 4.39838 17.1045 4.31828C17.1588 4.23729 17.215 4.15808 17.2739 4.07976C17.3328 4.00143 17.3927 3.92489 17.4553 3.85013C17.5179 3.77448 17.5815 3.7015 17.6478 3.62852C17.7141 3.55554 17.7813 3.48612 17.8513 3.4167C17.9212 3.34728 17.9921 3.28053 18.0649 3.21467C18.1376 3.14881 18.2122 3.08473 18.2887 3.02243C18.3651 2.96013 18.4424 2.89961 18.5216 2.84176C18.6008 2.78302 18.6819 2.72695 18.7638 2.67177C18.8458 2.61748 18.9296 2.56408 19.0143 2.51334C19.099 2.46261 19.1846 2.41366 19.2721 2.36738C19.3596 2.32021 19.448 2.27571 19.5373 2.23299C19.6266 2.19027 19.7169 2.15022 19.809 2.11195C19.9001 2.07368 19.9931 2.03719 20.0861 2.00337L20.0843 2.00515Z" fill="#00CA73"/>
<path d="M30.0007 7.15372C30.1416 7.38156 30.126 7.88175 30.0569 8.13273C29.8847 8.75751 29.3396 9.3111 28.764 9.62082C28.1194 9.96792 27.2723 10.0614 26.5632 9.86468C26.5255 9.854 26.4868 9.84243 26.45 9.82997C26.4122 9.81751 26.3754 9.80416 26.3385 9.78992C26.3017 9.77568 26.2649 9.76055 26.229 9.74453C26.193 9.72851 26.1571 9.7116 26.1221 9.6938C26.0872 9.676 26.0522 9.65731 26.0181 9.63773C25.984 9.61815 25.9499 9.59768 25.9168 9.57721C25.8836 9.55585 25.8514 9.53449 25.8192 9.51135C25.787 9.48821 25.7557 9.46507 25.7253 9.44104C25.6949 9.41701 25.6645 9.39209 25.635 9.36628C25.6056 9.34047 25.577 9.31377 25.5485 9.28707C25.5199 9.26037 25.4932 9.23189 25.4665 9.2043C25.4398 9.17582 25.414 9.14645 25.3882 9.11708C25.3634 9.08771 25.3385 9.05744 25.3146 9.02629C25.2906 8.99514 25.2685 8.96399 25.2464 8.93195C25.2243 8.89991 25.2031 8.86787 25.1829 8.83405C25.1626 8.80112 25.1433 8.7673 25.1249 8.73348C24.9656 8.44779 24.6884 7.86484 24.8053 7.53998C24.8146 7.51417 24.8348 7.48302 24.8486 7.4581C24.9076 7.65035 24.9858 7.83547 25.0844 8.01169C25.4195 8.60621 25.9978 9.02896 26.6682 9.21231C27.3579 9.4001 28.1075 9.27639 28.7235 8.93373C29.4528 8.52878 29.788 7.90667 30.0016 7.15283L30.0007 7.15372Z" fill="#FEFEFE"/>
<path d="M24.8484 8.22802C24.8061 7.98861 24.7655 7.75454 24.7748 7.51068C24.8015 6.80579 25.1026 6.11871 25.6496 5.6381C26.1818 5.16996 26.9378 4.92076 27.6588 4.95725C28.3725 4.99374 29.0972 5.31058 29.5751 5.82055C30.1055 6.38571 30.3228 7.16446 30.2676 7.91029C30.0429 8.69527 29.6902 9.3432 28.9231 9.76417C28.2749 10.1211 27.4876 10.2501 26.7619 10.0543C26.0575 9.86385 25.4488 9.42419 25.0971 8.80475C24.993 8.62051 24.911 8.42827 24.8493 8.22802H24.8484Z" fill="black"/>
<path d="M26.1972 6.97494C26.2165 6.61537 26.3178 6.29408 26.5996 6.0431C26.629 6.01729 26.6594 5.99237 26.6916 5.96923C26.7239 5.94609 26.7561 5.92473 26.7902 5.90515C26.8242 5.88557 26.8592 5.86777 26.8952 5.85086C26.9311 5.83484 26.9679 5.81971 27.0057 5.80725C27.0434 5.79479 27.0812 5.78322 27.1198 5.77432C27.1585 5.76542 27.1972 5.7583 27.2368 5.75296C27.2764 5.74762 27.316 5.74406 27.3556 5.74317C27.3952 5.74139 27.4348 5.74317 27.4744 5.74495C27.514 5.74762 27.5526 5.75207 27.5913 5.75919C27.63 5.76631 27.6687 5.77432 27.7064 5.785C27.7442 5.79568 27.7819 5.80814 27.8178 5.82238C27.8547 5.83662 27.8906 5.85264 27.9246 5.87044C27.9596 5.88824 27.9928 5.90782 28.0259 5.92918C28.0582 5.95054 28.0904 5.97368 28.1208 5.99771C28.1512 6.02174 28.1797 6.04844 28.2073 6.07514C28.235 6.10273 28.2608 6.13121 28.2847 6.16147C28.5066 6.43025 28.5858 6.76846 28.5702 7.10666C28.2276 7.04436 27.8878 6.98473 27.5379 6.97405C27.2478 6.96426 26.4099 7.07907 26.1953 6.97405L26.1972 6.97494Z" fill="#FEFEFE"/>
<path d="M20.1192 2.00515C23.9232 0.948715 30.0698 2.01316 33.5368 3.83678C35.7339 4.99201 37.559 6.64742 38.2588 9.01484C38.2772 9.07714 38.2929 9.13855 38.3076 9.20174C38.3693 9.62182 38.5388 10.268 38.3656 10.6667C38.2597 10.7228 38.2257 10.705 38.1087 10.6996C37.9144 10.6605 37.7063 10.6729 37.5083 10.6729C37.0949 8.93563 36.2523 7.64868 34.813 6.52727C32.3203 4.58617 29.3009 3.76024 26.1553 3.45052C24.9656 3.33304 23.7777 3.27697 22.5852 3.39712C20.9931 3.55732 19.1072 4.0495 18.0602 5.29817C16.922 6.65632 17.0196 7.97976 17.2038 9.59245C16.876 9.2765 16.6209 8.94186 16.4487 8.52444C16.003 7.44487 16.1872 6.11342 16.6753 5.07567C16.7176 4.98845 16.7618 4.90123 16.8079 4.81579C16.8548 4.73035 16.9027 4.6458 16.9533 4.56303C17.004 4.48026 17.0565 4.39749 17.1117 4.31739C17.167 4.2364 17.2232 4.15719 17.2821 4.07886C17.341 4.00054 17.4018 3.924 17.4644 3.84924C17.527 3.77359 17.5924 3.70061 17.6587 3.62763C17.725 3.55465 17.7941 3.48523 17.8641 3.41581C17.934 3.34639 18.0059 3.27964 18.0795 3.21378C18.1532 3.14792 18.2287 3.08384 18.3051 3.02154C18.3816 2.95924 18.4608 2.89872 18.54 2.84087C18.6201 2.78213 18.7011 2.72606 18.784 2.67088C18.8668 2.61659 18.9506 2.56319 19.0363 2.51245C19.1219 2.46172 19.2085 2.41277 19.296 2.36649C19.3844 2.31932 19.4728 2.27482 19.563 2.2321C19.6532 2.18938 19.7444 2.14933 19.8365 2.11106C19.9286 2.07279 20.0216 2.0363 20.1164 2.00248L20.1192 2.00515Z" fill="black"/>
<path d="M31.7 21.7181C31.8207 21.7421 32.0223 21.759 32.0905 21.8702C32.1199 21.9183 32.1356 21.969 32.154 22.0207C32.0619 22.4265 32.1199 22.9614 32.1199 23.3806C32.1264 24.3017 32.1209 25.222 32.1052 26.1432L31.4855 26.1512C31.4809 24.9336 31.4348 23.7126 31.4422 22.4968C31.444 22.1648 31.4422 21.9628 31.6991 21.7172L31.7 21.7181Z" fill="#FEFEFE"/>
<path d="M14.7958 37.553C16.2829 38.1368 17.7572 38.7331 19.2978 39.1737L19.3107 39.5769L19.3033 40.1242C17.7913 39.6 16.3216 38.8791 14.7792 38.4519L14.7617 38.2436C14.7986 38.0282 14.7811 37.7737 14.7958 37.553Z" fill="black"/>
<path d="M26.0586 21.2435C27.5494 21.345 29.078 21.725 30.4841 22.2074L30.4823 23.6216C29.0412 23.0778 27.5881 22.7209 26.0604 22.4913L26.0586 21.2435Z" fill="black"/>
<path d="M3.84221 29.2332C3.97112 29.4085 4.10188 29.582 4.23541 29.7538C4.36893 29.9256 4.50429 30.0956 4.64242 30.2638C4.78054 30.432 4.92051 30.5993 5.06324 30.764C5.20597 30.9286 5.35054 31.0915 5.49788 31.2526C5.64521 31.4137 5.79439 31.573 5.9454 31.7305C6.09642 31.888 6.2502 32.0429 6.40582 32.1969C6.56145 32.35 6.71891 32.5021 6.87914 32.6517C7.03844 32.8012 7.20051 32.9489 7.36442 33.094C7.52833 33.2391 7.69408 33.3824 7.86167 33.5239C8.02927 33.6654 8.1987 33.8042 8.36998 33.9404C8.54125 34.0775 8.71437 34.2118 8.89025 34.3445C9.06521 34.4771 9.24201 34.607 9.42065 34.7352C9.5993 34.8633 9.77978 34.9888 9.96211 35.1125C10.1444 35.2362 10.3277 35.3573 10.5128 35.4757C10.6979 35.594 10.8848 35.7106 11.0736 35.8245C11.2623 35.9385 11.452 36.0497 11.6436 36.1592C11.7706 36.2384 11.8379 36.2544 11.883 36.4057C11.9401 36.5988 11.8821 36.865 11.8922 37.0679L11.8793 37.2272C10.2466 36.007 8.55967 34.8037 7.05962 33.4286C6.09182 32.5413 5.26583 31.5845 4.38182 30.6269C4.31091 30.7026 4.24093 30.7791 4.17095 30.8565C4.10188 30.934 4.03374 31.0123 3.96652 31.0906C3.8993 31.1698 3.833 31.249 3.76762 31.33C3.70224 31.4101 3.6387 31.492 3.57516 31.5739C3.51255 31.6557 3.44993 31.7385 3.38915 31.8222C3.32838 31.9058 3.26852 31.9895 3.20959 32.0749C3.15066 32.1595 3.09264 32.2458 3.03647 32.3322C2.97938 32.4185 2.92413 32.5057 2.8698 32.5929C2.81547 32.6801 2.76206 32.7691 2.70957 32.8573C2.65709 32.9463 2.60644 33.0361 2.55671 33.126C2.50699 33.2159 2.45818 33.3067 2.4103 33.3984C2.36242 33.4901 2.31638 33.5817 2.27125 33.6743C2.22613 33.7668 2.18193 33.8594 2.13865 33.9529C2.09537 34.0463 2.05394 34.1398 2.01342 34.235C1.9729 34.3293 1.93331 34.4246 1.89555 34.5198C1.8578 34.615 1.82096 34.7111 1.78505 34.8073C1.74914 34.9034 1.71507 35.0004 1.68192 35.0974C1.64877 35.1944 1.61654 35.2923 1.58615 35.3893C1.55576 35.4872 1.52629 35.5851 1.49775 35.6839C1.4692 35.7827 1.4425 35.8815 1.41671 35.9803C1.39093 36.0791 1.36699 36.1788 1.34397 36.2784C1.32095 36.3781 1.29885 36.4778 1.27859 36.5784C1.25833 36.6789 1.23899 36.7795 1.22058 36.8801C1.20308 36.9807 1.18558 37.0812 1.17085 37.1827C1.1552 37.2841 1.14138 37.3847 1.12849 37.4862C1.1156 37.5876 1.10455 37.6891 1.0935 37.7906C1.08337 37.892 1.07416 37.9944 1.0668 38.0958C1.05943 38.1982 1.05298 38.2996 1.04746 38.402C1.04285 38.5043 1.03917 38.6058 1.03641 38.7082C1.03365 38.8105 1.03272 38.9129 1.03272 39.0152C1.03272 39.1176 1.03457 39.2199 1.03733 39.3214C1.04009 39.4237 1.0447 39.5261 1.0493 39.6275C1.08337 40.3538 1.17269 41.0845 1.36054 41.7885C1.43329 42.0608 2.04657 43.6593 2.04749 43.7331C2.04749 43.7732 2.02539 43.8114 2.01434 43.8497C0.737135 41.9415 -0.0372914 39.7397 0.0013839 37.4515C0.0547926 34.2795 1.49775 31.4137 3.83944 29.2349L3.84221 29.2332Z" fill="black"/>
<path d="M24.6805 34.2714H24.2266V39.0632H24.6805V34.2714Z" fill="black" stroke="white" stroke-miterlimit="10"/>
<path d="M24.6805 21.062H24.2266V27.5546H24.6805V21.062Z" fill="black" stroke="white" stroke-miterlimit="10"/>
<path d="M25.2374 26.5382H23.6701C23.5201 26.5382 23.3984 26.6558 23.3984 26.8008V37.1097C23.3984 37.2547 23.5201 37.3723 23.6701 37.3723H25.2374C25.3874 37.3723 25.509 37.2547 25.509 37.1097V26.8008C25.509 26.6558 25.3874 26.5382 25.2374 26.5382Z" fill="#E51A32"/>
<path d="M17.7576 30.7516H17.2383V35.8513H17.7576V30.7516Z" fill="black" stroke="white" stroke-miterlimit="10"/>
<path d="M17.7235 22.5571H17.2695V29.0497H17.7235V22.5571Z" fill="black" stroke="white" stroke-miterlimit="10"/>
<path d="M18.273 24.323H16.7204C16.5663 24.323 16.4414 24.4437 16.4414 24.5927V33.8532C16.4414 34.0021 16.5663 34.1229 16.7204 34.1229H18.273C18.4271 34.1229 18.552 34.0021 18.552 33.8532V24.5927C18.552 24.4437 18.4271 24.323 18.273 24.323Z" fill="#00CA73"/>
<path d="M9.73029 23.8761H9.21094V33.5211H9.73029V23.8761Z" fill="black" stroke="white" stroke-miterlimit="10"/>
<path d="M10.2468 24.9077H8.69974C8.54412 24.9077 8.41797 25.0296 8.41797 25.1801V32.39C8.41797 32.5404 8.54412 32.6623 8.69974 32.6623H10.2468C10.4024 32.6623 10.5285 32.5404 10.5285 32.39V25.1801C10.5285 25.0296 10.4024 24.9077 10.2468 24.9077Z" fill="#00CA73"/>
<path d="M32.1024 35.7568H31.6484V40.5486H32.1024V35.7568Z" fill="black" stroke="white" stroke-miterlimit="10"/>
<path d="M32.1024 22.5475H31.6484V29.0401H32.1024V22.5475Z" fill="black" stroke="white" stroke-miterlimit="10"/>
<path d="M32.6482 26.5302H31.103C30.9469 26.5302 30.8203 26.6525 30.8203 26.8034V38.1768C30.8203 38.3277 30.9469 38.45 31.103 38.45H32.6482C32.8043 38.45 32.9309 38.3277 32.9309 38.1768V26.8034C32.9309 26.6525 32.8043 26.5302 32.6482 26.5302Z" fill="#00CA73"/>
<path d="M39.786 31.1332H39.332V44.8286H39.786V31.1332Z" fill="black" stroke="white" stroke-miterlimit="10"/>
<path d="M40.3569 32.5502H38.7693C38.6249 32.5502 38.5078 32.6633 38.5078 32.8029V40.6154C38.5078 40.755 38.6249 40.8682 38.7693 40.8682H40.3569C40.5013 40.8682 40.6184 40.755 40.6184 40.6154V32.8029C40.6184 32.6633 40.5013 32.5502 40.3569 32.5502Z" fill="#E51A32"/>
<path d="M28.4188 45.3566H27.9648V55.1288H28.4188V45.3566Z" fill="black" stroke="white" stroke-miterlimit="10"/>
<path d="M28.9791 47.4141H27.3971C27.2511 47.4141 27.1328 47.5284 27.1328 47.6695V54.0402C27.1328 54.1812 27.2511 54.2956 27.3971 54.2956H28.9791C29.1251 54.2956 29.2434 54.1812 29.2434 54.0402V47.6695C29.2434 47.5284 29.1251 47.4141 28.9791 47.4141Z" fill="#00CA73"/>
<path d="M20.9891 39.4752H20.5352V54.4603H20.9891V39.4752Z" fill="black" stroke="white" stroke-miterlimit="10"/>
<path d="M21.5312 42.5236H19.9934C19.8352 42.5236 19.707 42.6475 19.707 42.8004V51.3106C19.707 51.4635 19.8352 51.5874 19.9934 51.5874H21.5312C21.6894 51.5874 21.8176 51.4635 21.8176 51.3106V42.8004C21.8176 42.6475 21.6894 42.5236 21.5312 42.5236Z" fill="#E51A32"/>
<path d="M13.4745 36.8479H13.0039V52.1062H13.4745V36.8479Z" fill="black" stroke="white" stroke-miterlimit="10"/>
<path d="M14.0221 39.4752H12.4401C12.2941 39.4752 12.1758 39.5896 12.1758 39.7307V48.6361C12.1758 48.7771 12.2941 48.8915 12.4401 48.8915H14.0221C14.168 48.8915 14.2863 48.7771 14.2863 48.6361V39.7307C14.2863 39.5896 14.168 39.4752 14.0221 39.4752Z" fill="#E51A32"/>
<path d="M6.18444 34.6488H5.73047V50.3983H6.18444V34.6488Z" fill="black" stroke="white" stroke-miterlimit="10"/>
<path d="M6.74587 37.1622H5.16939C5.0219 37.1622 4.90234 37.2778 4.90234 37.4203V44.7593C4.90234 44.9019 5.0219 45.0174 5.16939 45.0174H6.74587C6.89335 45.0174 7.01291 44.9019 7.01291 44.7593V37.4203C7.01291 37.2778 6.89335 37.1622 6.74587 37.1622Z" fill="#00CA73"/>
<path d="M29.1687 26.3976C29.1687 25.949 29.5454 25.585 30.0095 25.585H30.4865V23.4348C29.0444 22.891 27.5913 22.5341 26.0637 22.3044C26.0655 23.5362 26.06 24.7671 26.0508 25.9989C26.5665 26.0309 26.9744 26.4439 26.9744 26.9494V33.4046C27.3897 33.4838 27.8059 33.5506 28.2286 33.5826C28.5472 33.5817 28.8575 33.5701 29.1687 33.5363V26.3976Z" fill="#00CA73"/>
<path d="M44.6838 38.8311C44.4812 37.0244 43.7123 35.3271 42.8725 33.7242C42.6496 33.2988 41.9802 32.0207 41.68 31.6416C41.6745 31.7484 41.6708 31.8561 41.668 31.9629C41.761 32.0599 41.8181 32.1898 41.8181 32.3331V41.5082C41.8181 41.8099 41.5649 42.0547 41.2527 42.0547H40.8374C40.831 43.4787 40.8107 45.3949 40.8384 46.7272C42.3651 45.4465 43.7639 43.6976 44.3753 41.8624C44.5005 41.486 44.6663 41.0534 44.6994 40.6618C44.5917 40.4696 44.7215 39.1755 44.6829 38.8311H44.6838Z" fill="#00CA73"/>
<path d="M22.9813 22.2544C21.3607 22.2971 19.7105 22.2046 18.0898 22.1743C18.1119 22.5365 18.1 22.9041 18.1 23.2681H18.4711C18.7685 23.237 19.0742 23.2023 19.3505 23.269C19.7068 23.2815 19.9914 23.5636 19.9914 23.9107V31.9777C19.9914 32.0703 19.9711 32.1575 19.9352 32.2367C20.6581 32.2857 21.1074 32.3444 21.8054 32.4307V26.951C21.8054 26.4241 22.2474 25.9969 22.7926 25.9969H22.9823C22.9731 24.9867 22.974 23.9766 22.9777 22.9673" fill="#00CA73"/>
<path d="M7.38672 31.2649C7.39461 31.273 7.40152 31.2821 7.40941 31.2912C7.40842 31.2841 7.40645 31.278 7.40546 31.271C7.39954 31.2689 7.39264 31.2679 7.38672 31.2649Z" fill="#00CA73"/>
<path d="M16.878 22.3579C15.7767 22.4113 14.6984 22.2973 13.6136 22.13C10.9717 21.7233 8.46152 20.9338 6.43935 19.1618C5.19438 18.0707 4.35457 16.7206 3.69985 15.2405C2.93464 16.7793 2.38305 18.2469 2.29926 19.9691C2.26242 20.7291 2.25137 21.4937 2.31583 22.2528C2.35359 22.7005 2.44567 23.1473 2.47422 23.5941C2.48158 23.7044 2.4779 23.7756 2.42265 23.8753C2.52763 24.2794 2.72561 24.6932 2.89596 25.0768C3.8343 27.187 5.51022 29.218 7.1088 30.9598C7.09867 30.9215 7.09039 30.8832 7.09039 30.8414V24.4859C7.09039 24.2349 7.30126 24.0311 7.56093 24.0311H8.80223C8.79946 23.9447 8.79762 23.8308 8.79394 23.7828C8.88142 23.5336 8.87681 23.4401 9.09413 23.2852C9.19543 23.1802 9.433 23.206 9.58402 23.2132C9.71478 23.2194 9.81607 23.2915 9.90539 23.3805C10.1172 23.5923 10.1255 23.7685 10.1218 24.0311H11.1706C11.4303 24.0311 11.6412 24.2349 11.6412 24.4859V30.8414C11.6412 31.039 11.5104 31.2054 11.3281 31.2677C11.3281 31.2686 11.3262 31.2695 11.3262 31.2713C12.4257 31.3585 13.8742 31.4653 14.9976 31.6184V24.0827C14.9976 23.7276 15.2951 23.4401 15.6625 23.4401H16.8992C16.8992 23.0788 16.8946 22.7183 16.8761 22.357L16.878 22.3579Z" fill="#00CA73"/>
<path d="M37.3127 49.2752C37.099 48.9699 36.8716 48.6745 36.6294 48.3905C36.3872 48.1057 36.1312 47.8334 35.8623 47.5726C33.0842 44.8697 29.3336 43.0523 25.536 42.1231C24.7008 41.9184 23.8362 41.7386 22.9706 41.6683C23.1327 41.8374 23.2321 42.0626 23.2321 42.3109V48.9388C23.2422 49.5778 23.2551 50.3112 23.2321 50.9475V51.7806C23.2321 52.2701 22.8481 52.6724 22.3555 52.7222C23.5102 52.7694 24.6659 52.6439 25.8141 52.5291V50.6022L25.8105 48.9966C25.8105 48.4404 25.7828 47.8646 25.8141 47.3056V46.6283C25.8141 46.3213 26.0711 46.073 26.3887 46.073H27.3704V45.2818C27.3704 44.8448 27.7369 44.4905 28.189 44.4905H28.2516C28.7037 44.4905 29.0702 44.8448 29.0702 45.2818V46.073H30.0804C30.3981 46.073 30.655 46.3213 30.655 46.6283V48.2001C30.6605 48.8204 30.6596 49.5493 30.655 50.2738V53.6665C32.2398 52.5237 34.3301 51.5358 36.3504 51.8055C37.5696 51.9684 38.3965 52.635 39.1553 53.5268C39.0264 52.2906 38.0291 50.3112 37.3118 49.2761L37.3127 49.2752Z" fill="#00CA73"/>
<path d="M19.3065 40.1251C17.7945 39.6009 16.3248 38.88 14.7824 38.4528C14.7824 38.4964 14.776 38.556 14.7705 38.621H14.8248C15.3469 38.621 15.7696 39.0295 15.7696 39.5341V48.8329C15.7696 49.3375 15.3469 49.746 14.8248 49.746H14.7695L14.7714 51.9355C15.9086 52.2158 17.5459 52.6403 18.8663 52.7124C18.4041 52.6368 18.0514 52.2487 18.0514 51.7797V42.3092C18.0514 41.7858 18.4897 41.3622 19.0312 41.3622H19.3047C19.3093 40.9492 19.3139 40.5363 19.3047 40.1251H19.3065Z" fill="#00CA73"/>
<path d="M11.468 38.6797H11.8751C11.8843 38.1946 11.8926 37.7105 11.8769 37.2254C10.2443 36.0052 8.55727 34.8019 7.05723 33.4269C6.08942 32.5395 5.26343 31.5828 4.37942 30.6251C4.30852 30.7008 4.23853 30.7773 4.16855 30.8547C4.09949 30.9322 4.03135 31.0105 3.96412 31.0888C3.8969 31.168 3.8306 31.2472 3.76522 31.3282C3.69984 31.4083 3.63631 31.4902 3.57277 31.5721C3.51015 31.654 3.44753 31.7367 3.38676 31.8204C3.32598 31.9041 3.26613 31.9877 3.20719 32.0732C3.14826 32.1577 3.09025 32.244 3.03408 32.3304C2.97698 32.4167 2.92173 32.5039 2.8674 32.5911C2.81308 32.6784 2.75967 32.7674 2.70718 32.8555C2.65469 32.9445 2.60404 33.0344 2.55432 33.1243C2.50459 33.2142 2.45579 33.3049 2.40791 33.3966C2.36002 33.4883 2.31398 33.5799 2.26886 33.6725C2.22374 33.7651 2.17954 33.8576 2.13718 33.9511C2.0939 34.0445 2.05246 34.138 2.01194 34.2332C1.97143 34.3275 1.93183 34.4228 1.89408 34.518C1.85632 34.6132 1.81949 34.7094 1.78358 34.8055C1.74766 34.9016 1.71359 34.9986 1.68044 35.0956C1.64729 35.1926 1.61506 35.2905 1.58467 35.3875C1.55429 35.4854 1.52482 35.5833 1.49627 35.6821C1.46773 35.7809 1.44102 35.8797 1.41524 35.9785C1.38946 36.0773 1.36551 36.177 1.34249 36.2767C1.31947 36.3763 1.29737 36.476 1.27711 36.5766C1.25686 36.6772 1.23752 36.7777 1.2191 36.8783C1.20161 36.9789 1.18411 37.0794 1.16938 37.1809C1.15372 37.2824 1.13991 37.3829 1.12702 37.4844C1.11413 37.5859 1.10308 37.6873 1.09203 37.7888C1.0819 37.8902 1.07269 37.9926 1.06532 38.0941C1.05795 38.1964 1.05151 38.2979 1.04598 38.4002C1.04138 38.5026 1.0377 38.604 1.03493 38.7064C1.03217 38.8087 1.03125 38.9111 1.03125 39.0134C1.03125 39.1158 1.03309 39.2181 1.03585 39.3196C1.03862 39.4219 1.04322 39.5243 1.04783 39.6258C1.0819 40.352 1.17122 41.0827 1.35907 41.7867C1.43182 42.059 2.04509 43.6575 2.04602 43.7314C2.04602 43.7714 2.02392 43.8097 2.01287 43.8479C2.40514 44.6231 3.85915 46.1272 4.52123 46.7814L4.51663 45.7899H3.83244C3.58382 45.7899 3.38215 45.595 3.38215 45.3547V36.8124C3.38215 36.5721 3.58382 36.3772 3.83244 36.3772H4.36929V35.4899C4.36837 35.4169 4.36837 35.3448 4.36929 35.2727V34.8936C4.36929 34.13 5.0102 33.5105 5.80028 33.5105H6.11429C6.90437 33.5105 7.54527 34.13 7.54527 34.8936V35.4908C7.55632 35.8076 7.55908 36.1289 7.56093 36.3772H8.09317C8.3418 36.3772 8.54346 36.5721 8.54346 36.8124V45.3547C8.54346 45.595 8.3418 45.7899 8.09317 45.7899H7.42556L7.41727 49.002C8.78288 49.9498 10.3253 50.5897 11.8705 51.2092L11.8576 49.8048H11.4671C10.945 49.8048 10.5223 49.3962 10.5223 48.8916V39.5928C10.5223 39.0882 10.945 38.6797 11.4671 38.6797H11.468Z" fill="#00CA73"/>
<path d="M40.9371 30.5566C38.8882 27.9195 36.3504 26.3317 33.4258 24.7422V25.771H33.6597C34.1238 25.771 34.5004 26.135 34.5004 26.5836V27.1007C34.5566 27.7789 34.517 28.4856 34.5197 29.1655C34.5225 29.9923 34.5105 30.82 34.5004 31.6486V34.7574C34.5022 34.834 34.5032 34.9114 34.505 34.9888C35.3568 35.2701 36.25 35.4196 37.0944 35.7249V32.3339C37.0944 32.0322 37.3476 31.7875 37.6598 31.7875H37.8145V31.4626C37.8145 30.7835 38.3836 30.2335 39.0862 30.2335H39.9499C40.6525 30.2335 41.2216 30.7835 41.2216 31.4626V31.7875H41.2631C41.4638 31.7875 41.6388 31.888 41.7391 32.0402C41.8174 32.0527 41.8947 32.0696 41.9703 32.0954C41.7318 31.557 41.299 31.0247 40.9352 30.5575L40.9371 30.5566Z" fill="#00CA73"/>
<path d="M2.66182 14.3077C3.07343 13.6224 3.26497 12.7983 3.77419 12.1637C3.73552 14.1529 4.3801 16.0014 5.8203 17.4548C9.19149 20.8555 14.1742 21.1243 18.7507 21.2008C20.1513 21.2204 21.5519 21.2115 22.9516 21.1759C22.9157 21.5737 22.9912 21.9769 22.9921 22.3765C21.3714 22.4192 19.701 22.3908 18.0804 22.3605C18.0012 22.2368 17.9284 22.1157 17.7967 22.0374C17.6494 21.9493 17.4616 21.9137 17.2949 21.9662C17.0895 22.0312 16.9726 22.1816 16.8759 22.3578C15.7746 22.4112 14.6963 22.2973 13.6115 22.13C10.9696 21.7233 8.45942 20.9338 6.43726 19.1618C5.19228 18.0707 4.35248 16.7205 3.69776 15.2404C2.93254 16.7793 2.38096 18.2469 2.29716 19.969C2.26033 20.7291 2.24928 21.4936 2.31374 22.2528C2.35149 22.7005 2.44358 23.1473 2.47212 23.594C2.47949 23.7044 2.47581 23.7756 2.42056 23.8753C1.55128 21.5132 1.4417 18.6554 2.03749 16.2195C2.19679 15.5689 2.46936 14.9485 2.65997 14.3068L2.66182 14.3077Z" fill="black"/>
</svg>
